# xmcd CD database file
#
# Track frame offsets:
#	150
#	16711
#	32123
#	46989
#	68719
#	82266
#	98285
#	117454
#	139179
#	154276
#	177472
#	196619
#	213236
#	234374
#	254225
#
# Disc length: 3673 seconds
#
# Revision: 0
# Processed by: cddbd v1.5.1PL2 Copyright (c) Steve Scherf et al.
# Submitted via: CDex 1.51
#
DISCID=ca0e570f
DTITLE=Stephane Wrembel - Gypsy Rumble
DYEAR=2006
DGENRE=Jazz
TTITLE0=Jimmy's Bar
TTITLE1=Les Deux Guitares
TTITLE2=China Boy
TTITLE3=Swing Gitane
TTITLE4=Swing De Bellevue
TTITLE5=Buster Swing
TTITLE6=Swing 48
TTITLE7=Supplique
TTITLE8=Mabel
TTITLE9=Big Brother
TTITLE10=Blue Drag
TTITLE11=Milko
TTITLE12=David
TTITLE13=Belleville Rendevous
TTITLE14=Wrap Your Troubles In Dreams
EXTD=YEAR: 2006
EXTT0=
EXTT1=
EXTT2=
EXTT3=
EXTT4=
EXTT5=
EXTT6=
EXTT7=
EXTT8=
EXTT9=
EXTT10=
EXTT11=
EXTT12=
EXTT13=
EXTT14=
PLAYORDER=
